# xmcd
#
# Track frame offsets: 
#        150
#        11482
#        24857
#        45104
#        78933
#        113037
#        131069
#        144024
#        165380
#        183606
#        197960
#
# Disc length: 2781 seconds
#
# Revision: 0
# Processed by: cddbd v1.5.2PL0 Copyright (c) Steve Scherf et al.
# Submitted via: ExactAudioCopy v0.95b3
#
DISCID=7c0adb0b
DTITLE=Various Artist - A Visit to Mark Twain's House
DYEAR=1992
DGENRE=Other
TTITLE0=More of Mark Twain's Sayings
TTITLE1=The Greg Smith Quartet - Old Memories
TTITLE2=Twains Music Box
TTITLE3=Thanks to the Mark Twain Memorial 1
TTITLE4=Thanks to the Mark Twain Memorial 2
TTITLE5=Pamela Warrick-Smith - Sometimes I Feel Like a Motherless Chil
TTITLE5=d
TTITLE6=Garrison Keillor and Roy Blount Jr Play Pool 1
TTITLE7=Garrison Keillor and Roy Blount Jr Play Pool 2
TTITLE8=The Greg Smith Singers - Old Home Day
TTITLE9=Thanks and Credits
TTITLE10=All - Flow Gently Sweet Afton
EXTD=
EXTT0=
EXTT1=
EXTT2=
EXTT3=
EXTT4=
EXTT5=
EXTT6=
EXTT7=
EXTT8=
EXTT9=
EXTT10=
PLAYORDER=
